<svg id="visual" viewBox="0 0 960 540" width="960" height="540" xmlns="http://www.w3.org/2000/svg" xmlns:xlink="http://www.w3.org/1999/xlink" version="1.1"><path d="M0 435L17.8 429.8C35.7 424.7 71.3 414.3 106.8 411.5C142.3 408.7 177.7 413.3 213.2 423.2C248.7 433 284.3 448 320 450.3C355.7 452.7 391.3 442.3 426.8 431.8C462.3 421.3 497.7 410.7 533.2 405.5C568.7 400.3 604.3 400.7 640 405.3C675.7 410 711.3 419 746.8 421.7C782.3 424.3 817.7 420.7 853.2 420.2C888.7 419.7 924.3 422.3 942.2 423.7L960 425L960 541L942.2 541C924.3 541 888.7 541 853.2 541C817.7 541 782.3 541 746.8 541C711.3 541 675.7 541 640 541C604.3 541 568.7 541 533.2 541C497.7 541 462.3 541 426.8 541C391.3 541 355.7 541 320 541C284.3 541 248.7 541 213.2 541C177.7 541 142.3 541 106.8 541C71.3 541 35.7 541 17.8 541L0 541Z" fill="#757ce8"></path><path d="M0 488L17.8 488.2C35.7 488.3 71.3 488.7 106.8 482.3C142.3 476 177.7 463 213.2 455.8C248.7 448.7 284.3 447.3 320 451.8C355.7 456.3 391.3 466.7 426.8 472.2C462.3 477.7 497.7 478.3 533.2 478.3C568.7 478.3 604.3 477.7 640 480.2C675.7 482.7 711.3 488.3 746.8 487.8C782.3 487.3 817.7 480.7 853.2 477.3C888.7 474 924.3 474 942.2 474L960 474L960 541L942.2 541C924.3 541 888.7 541 853.2 541C817.7 541 782.3 541 746.8 541C711.3 541 675.7 541 640 541C604.3 541 568.7 541 533.2 541C497.7 541 462.3 541 426.8 541C391.3 541 355.7 541 320 541C284.3 541 248.7 541 213.2 541C177.7 541 142.3 541 106.8 541C71.3 541 35.7 541 17.8 541L0 541Z" fill="#1a4880"></path><path d="M0 483L17.8 484.8C35.7 486.7 71.3 490.3 106.8 495.7C142.3 501 177.7 508 213.2 508.5C248.7 509 284.3 503 320 502.8C355.7 502.7 391.3 508.3 426.8 506.2C462.3 504 497.7 494 533.2 487.8C568.7 481.7 604.3 479.3 640 479.3C675.7 479.3 711.3 481.7 746.8 484.8C782.3 488 817.7 492 853.2 490.7C888.7 489.3 924.3 482.7 942.2 479.3L960 476L960 541L942.2 541C924.3 541 888.7 541 853.2 541C817.7 541 782.3 541 746.8 541C711.3 541 675.7 541 640 541C604.3 541 568.7 541 533.2 541C497.7 541 462.3 541 426.8 541C391.3 541 355.7 541 320 541C284.3 541 248.7 541 213.2 541C177.7 541 142.3 541 106.8 541C71.3 541 35.7 541 17.8 541L0 541Z" fill="#001220"></path></svg>