<svg id="visual" viewBox="0 0 960 540" width="960" height="540" xmlns="http://www.w3.org/2000/svg" xmlns:xlink="http://www.w3.org/1999/xlink" version="1.1"><rect x="0" y="0" width="960" height="540" fill="#001220"></rect><defs><linearGradient id="grad1_0" x1="43.8%" y1="0%" x2="100%" y2="100%"><stop offset="14.444444444444446%" stop-color="#757ce8" stop-opacity="1"></stop><stop offset="85.55555555555554%" stop-color="#757ce8" stop-opacity="1"></stop></linearGradient></defs><defs><linearGradient id="grad1_1" x1="43.8%" y1="0%" x2="100%" y2="100%"><stop offset="14.444444444444446%" stop-color="#757ce8" stop-opacity="1"></stop><stop offset="85.55555555555554%" stop-color="#576ecb" stop-opacity="1"></stop></linearGradient></defs><defs><linearGradient id="grad1_2" x1="43.8%" y1="0%" x2="100%" y2="100%"><stop offset="14.444444444444446%" stop-color="#3c5fad" stop-opacity="1"></stop><stop offset="85.55555555555554%" stop-color="#576ecb" stop-opacity="1"></stop></linearGradient></defs><defs><linearGradient id="grad1_3" x1="43.8%" y1="0%" x2="100%" y2="100%"><stop offset="14.444444444444446%" stop-color="#3c5fad" stop-opacity="1"></stop><stop offset="85.55555555555554%" stop-color="#25508f" stop-opacity="1"></stop></linearGradient></defs><defs><linearGradient id="grad1_4" x1="43.8%" y1="0%" x2="100%" y2="100%"><stop offset="14.444444444444446%" stop-color="#114071" stop-opacity="1"></stop><stop offset="85.55555555555554%" stop-color="#25508f" stop-opacity="1"></stop></linearGradient></defs><defs><linearGradient id="grad1_5" x1="43.8%" y1="0%" x2="100%" y2="100%"><stop offset="14.444444444444446%" stop-color="#114071" stop-opacity="1"></stop><stop offset="85.55555555555554%" stop-color="#053155" stop-opacity="1"></stop></linearGradient></defs><defs><linearGradient id="grad1_6" x1="43.8%" y1="0%" x2="100%" y2="100%"><stop offset="14.444444444444446%" stop-color="#022239" stop-opacity="1"></stop><stop offset="85.55555555555554%" stop-color="#053155" stop-opacity="1"></stop></linearGradient></defs><defs><linearGradient id="grad1_7" x1="43.8%" y1="0%" x2="100%" y2="100%"><stop offset="14.444444444444446%" stop-color="#022239" stop-opacity="1"></stop><stop offset="85.55555555555554%" stop-color="#001220" stop-opacity="1"></stop></linearGradient></defs><defs><linearGradient id="grad2_0" x1="0%" y1="0%" x2="56.3%" y2="100%"><stop offset="14.444444444444446%" stop-color="#757ce8" stop-opacity="1"></stop><stop offset="85.55555555555554%" stop-color="#757ce8" stop-opacity="1"></stop></linearGradient></defs><defs><linearGradient id="grad2_1" x1="0%" y1="0%" x2="56.3%" y2="100%"><stop offset="14.444444444444446%" stop-color="#576ecb" stop-opacity="1"></stop><stop offset="85.55555555555554%" stop-color="#757ce8" stop-opacity="1"></stop></linearGradient></defs><defs><linearGradient id="grad2_2" x1="0%" y1="0%" x2="56.3%" y2="100%"><stop offset="14.444444444444446%" stop-color="#576ecb" stop-opacity="1"></stop><stop offset="85.55555555555554%" stop-color="#3c5fad" stop-opacity="1"></stop></linearGradient></defs><defs><linearGradient id="grad2_3" x1="0%" y1="0%" x2="56.3%" y2="100%"><stop offset="14.444444444444446%" stop-color="#25508f" stop-opacity="1"></stop><stop offset="85.55555555555554%" stop-color="#3c5fad" stop-opacity="1"></stop></linearGradient></defs><defs><linearGradient id="grad2_4" x1="0%" y1="0%" x2="56.3%" y2="100%"><stop offset="14.444444444444446%" stop-color="#25508f" stop-opacity="1"></stop><stop offset="85.55555555555554%" stop-color="#114071" stop-opacity="1"></stop></linearGradient></defs><defs><linearGradient id="grad2_5" x1="0%" y1="0%" x2="56.3%" y2="100%"><stop offset="14.444444444444446%" stop-color="#053155" stop-opacity="1"></stop><stop offset="85.55555555555554%" stop-color="#114071" stop-opacity="1"></stop></linearGradient></defs><defs><linearGradient id="grad2_6" x1="0%" y1="0%" x2="56.3%" y2="100%"><stop offset="14.444444444444446%" stop-color="#053155" stop-opacity="1"></stop><stop offset="85.55555555555554%" stop-color="#022239" stop-opacity="1"></stop></linearGradient></defs><defs><linearGradient id="grad2_7" x1="0%" y1="0%" x2="56.3%" y2="100%"><stop offset="14.444444444444446%" stop-color="#001220" stop-opacity="1"></stop><stop offset="85.55555555555554%" stop-color="#022239" stop-opacity="1"></stop></linearGradient></defs><g transform="translate(960, 0)"><path d="M0 189C-12.3 173.1 -24.6 157.2 -41.7 155.5C-58.7 153.8 -80.6 166.3 -93 161.1C-105.4 155.9 -108.5 132.9 -120.2 120.2C-131.9 107.5 -152.2 105 -163.7 94.5C-175.2 84 -177.9 65.5 -180.6 48.4C-183.4 31.3 -186.2 15.7 -189 0L0 0Z" fill="#031a2c"></path><path d="M0 165.4C-10.8 151.5 -21.5 137.6 -36.5 136.1C-51.4 134.6 -70.5 145.5 -81.4 140.9C-92.3 136.4 -95 116.3 -105.2 105.2C-115.4 94.1 -133.2 91.9 -143.2 82.7C-153.3 73.5 -155.6 57.3 -158 42.3C-160.5 27.4 -162.9 13.7 -165.4 0L0 0Z" fill="#032947"></path><path d="M0 141.8C-9.2 129.8 -18.5 117.9 -31.3 116.6C-44 115.4 -60.4 124.7 -69.7 120.8C-79.1 116.9 -81.4 99.7 -90.2 90.2C-98.9 80.6 -114.1 78.8 -122.8 70.9C-131.4 63 -133.4 49.1 -135.5 36.3C-137.5 23.5 -139.6 11.7 -141.7 0L0 0Z" fill="#093963"></path><path d="M0 118.1C-7.7 108.2 -15.4 98.3 -26 97.2C-36.7 96.1 -50.3 103.9 -58.1 100.7C-65.9 97.4 -67.8 83.1 -75.1 75.1C-82.4 67.2 -95.1 65.6 -102.3 59.1C-109.5 52.5 -111.2 40.9 -112.9 30.2C-114.6 19.6 -116.4 9.8 -118.1 0L0 0Z" fill="#1a4880"></path><path d="M0 94.5C-6.2 86.6 -12.3 78.6 -20.8 77.8C-29.4 76.9 -40.3 83.2 -46.5 80.5C-52.7 77.9 -54.3 66.5 -60.1 60.1C-65.9 53.7 -76.1 52.5 -81.8 47.3C-87.6 42 -88.9 32.7 -90.3 24.2C-91.7 15.7 -93.1 7.8 -94.5 0L0 0Z" fill="#30579e"></path><path d="M0 70.9C-4.6 64.9 -9.2 59 -15.6 58.3C-22 57.7 -30.2 62.4 -34.9 60.4C-39.5 58.4 -40.7 49.8 -45.1 45.1C-49.5 40.3 -57.1 39.4 -61.4 35.4C-65.7 31.5 -66.7 24.6 -67.7 18.1C-68.8 11.7 -69.8 5.9 -70.9 0L0 0Z" fill="#4966bc"></path><path d="M0 47.3C-3.1 43.3 -6.2 39.3 -10.4 38.9C-14.7 38.5 -20.1 41.6 -23.2 40.3C-26.4 39 -27.1 33.2 -30.1 30.1C-33 26.9 -38 26.3 -40.9 23.6C-43.8 21 -44.5 16.4 -45.2 12.1C-45.8 7.8 -46.5 3.9 -47.2 0L0 0Z" fill="#6675d9"></path><path d="M0 23.6C-1.5 21.6 -3.1 19.7 -5.2 19.4C-7.3 19.2 -10.1 20.8 -11.6 20.1C-13.2 19.5 -13.6 16.6 -15 15C-16.5 13.4 -19 13.1 -20.5 11.8C-21.9 10.5 -22.2 8.2 -22.6 6C-22.9 3.9 -23.3 2 -23.6 0L0 0Z" fill="#757ce8"></path></g><g transform="translate(0, 540)"><path d="M0 -189C15.8 -183.4 31.5 -177.9 46.3 -172.9C61.2 -167.9 75.1 -163.5 91.5 -158.5C107.9 -153.5 126.9 -147.9 133.6 -133.6C140.4 -119.4 134.8 -96.5 141.2 -81.5C147.5 -66.5 165.8 -59.4 175.8 -47.1C185.8 -34.8 187.4 -17.4 189 0L0 0Z" fill="#031a2c"></path><path d="M0 -165.4C13.8 -160.5 27.6 -155.7 40.5 -151.3C53.5 -146.9 65.7 -143.1 80.1 -138.7C94.5 -134.3 111.1 -129.4 116.9 -116.9C122.8 -104.5 117.9 -84.4 123.5 -71.3C129.1 -58.2 145.1 -52 153.8 -41.2C162.5 -30.5 164 -15.2 165.4 0L0 0Z" fill="#032947"></path><path d="M0 -141.7C11.8 -137.6 23.6 -133.4 34.7 -129.7C45.9 -125.9 56.3 -122.6 68.6 -118.9C81 -115.1 95.2 -110.9 100.2 -100.2C105.3 -89.6 101.1 -72.4 105.9 -61.1C110.6 -49.9 124.4 -44.5 131.8 -35.3C139.3 -26.1 140.5 -13.1 141.8 0L0 0Z" fill="#093963"></path><path d="M0 -118.1C9.8 -114.7 19.7 -111.2 29 -108.1C38.2 -104.9 46.9 -102.2 57.2 -99.1C67.5 -95.9 79.3 -92.4 83.5 -83.5C87.7 -74.6 84.2 -60.3 88.2 -50.9C92.2 -41.6 103.6 -37.1 109.9 -29.4C116.1 -21.8 117.1 -10.9 118.1 0L0 0Z" fill="#1a4880"></path><path d="M0 -94.5C7.9 -91.7 15.8 -88.9 23.2 -86.5C30.6 -84 37.5 -81.7 45.7 -79.2C54 -76.7 63.5 -73.9 66.8 -66.8C70.2 -59.7 67.4 -48.3 70.6 -40.8C73.8 -33.2 82.9 -29.7 87.9 -23.6C92.9 -17.4 93.7 -8.7 94.5 0L0 0Z" fill="#30579e"></path><path d="M0 -70.9C5.9 -68.8 11.8 -66.7 17.4 -64.8C22.9 -63 28.1 -61.3 34.3 -59.4C40.5 -57.6 47.6 -55.5 50.1 -50.1C52.6 -44.8 50.5 -36.2 52.9 -30.6C55.3 -24.9 62.2 -22.3 65.9 -17.7C69.7 -13.1 70.3 -6.5 70.9 0L0 0Z" fill="#4966bc"></path><path d="M0 -47.2C3.9 -45.9 7.9 -44.5 11.6 -43.2C15.3 -42 18.8 -40.9 22.9 -39.6C27 -38.4 31.7 -37 33.4 -33.4C35.1 -29.9 33.7 -24.1 35.3 -20.4C36.9 -16.6 41.5 -14.8 43.9 -11.8C46.4 -8.7 46.8 -4.4 47.3 0L0 0Z" fill="#6675d9"></path><path d="M0 -23.6C2 -22.9 3.9 -22.2 5.8 -21.6C7.6 -21 9.4 -20.4 11.4 -19.8C13.5 -19.2 15.9 -18.5 16.7 -16.7C17.5 -14.9 16.8 -12.1 17.6 -10.2C18.4 -8.3 20.7 -7.4 22 -5.9C23.2 -4.4 23.4 -2.2 23.6 0L0 0Z" fill="#757ce8"></path></g></svg>