<svg id="visual" viewBox="0 0 960 540" width="960" height="540" xmlns="http://www.w3.org/2000/svg" xmlns:xlink="http://www.w3.org/1999/xlink" version="1.1"><path d="M0 449L14.5 447.7C29 446.3 58 443.7 87.2 439.3C116.3 435 145.7 429 174.8 426.5C204 424 233 425 262 422.5C291 420 320 414 349 416.7C378 419.3 407 430.7 436.2 434.5C465.3 438.3 494.7 434.7 523.8 430.3C553 426 582 421 611 428.8C640 436.7 669 457.3 698 464.7C727 472 756 466 785.2 457.7C814.3 449.3 843.7 438.7 872.8 431.5C902 424.3 931 420.7 945.5 418.8L960 417L960 541L945.5 541C931 541 902 541 872.8 541C843.7 541 814.3 541 785.2 541C756 541 727 541 698 541C669 541 640 541 611 541C582 541 553 541 523.8 541C494.7 541 465.3 541 436.2 541C407 541 378 541 349 541C320 541 291 541 262 541C233 541 204 541 174.8 541C145.7 541 116.3 541 87.2 541C58 541 29 541 14.5 541L0 541Z" fill="#757ce8"></path><path d="M0 443L14.5 448.5C29 454 58 465 87.2 471.3C116.3 477.7 145.7 479.3 174.8 475C204 470.7 233 460.3 262 455.8C291 451.3 320 452.7 349 451.5C378 450.3 407 446.7 436.2 454.3C465.3 462 494.7 481 523.8 488C553 495 582 490 611 483.8C640 477.7 669 470.3 698 464.5C727 458.7 756 454.3 785.2 457.8C814.3 461.3 843.7 472.7 872.8 479.8C902 487 931 490 945.5 491.5L960 493L960 541L945.5 541C931 541 902 541 872.8 541C843.7 541 814.3 541 785.2 541C756 541 727 541 698 541C669 541 640 541 611 541C582 541 553 541 523.8 541C494.7 541 465.3 541 436.2 541C407 541 378 541 349 541C320 541 291 541 262 541C233 541 204 541 174.8 541C145.7 541 116.3 541 87.2 541C58 541 29 541 14.5 541L0 541Z" fill="#1a4880"></path><path d="M0 493L14.5 497.5C29 502 58 511 87.2 509.5C116.3 508 145.7 496 174.8 496.2C204 496.3 233 508.7 262 510C291 511.3 320 501.7 349 497.8C378 494 407 496 436.2 497C465.3 498 494.7 498 523.8 501.5C553 505 582 512 611 515.8C640 519.7 669 520.3 698 520.7C727 521 756 521 785.2 520.8C814.3 520.7 843.7 520.3 872.8 514.8C902 509.3 931 498.7 945.5 493.3L960 488L960 541L945.5 541C931 541 902 541 872.8 541C843.7 541 814.3 541 785.2 541C756 541 727 541 698 541C669 541 640 541 611 541C582 541 553 541 523.8 541C494.7 541 465.3 541 436.2 541C407 541 378 541 349 541C320 541 291 541 262 541C233 541 204 541 174.8 541C145.7 541 116.3 541 87.2 541C58 541 29 541 14.5 541L0 541Z" fill="#001220"></path></svg>